<svg width="40" height="40" viewBox="0 0 40 40" fill="none" xmlns="http://www.w3.org/2000/svg" role="img" aria-label="Unleash My AI">
  <defs>
    <linearGradient id="umaBadge" x1="0" y1="0" x2="40" y2="40" gradientUnits="userSpaceOnUse">
      <stop stop-color="#0f9488"/>
      <stop offset="1" stop-color="#115e59"/>
    </linearGradient>
  </defs>
  <rect width="40" height="40" rx="10" fill="url(#umaBadge)"/>
  <path d="M20 7 C 20.9 15.1 24.9 19.1 33 20 C 24.9 20.9 20.9 24.9 20 33 C 19.1 24.9 15.1 20.9 7 20 C 15.1 19.1 19.1 15.1 20 7 Z" fill="#fffaf0"/>
  <path d="M29.5 7 C 29.8 9.6 30.9 10.7 33.5 11 C 30.9 11.3 29.8 12.4 29.5 15 C 29.2 12.4 28.1 11.3 25.5 11 C 28.1 10.7 29.2 9.6 29.5 7 Z" fill="#e9a23b"/>
</svg>
